# xmcd CD database file
#
# Track frame offsets:
#	150
#	51041
#	96134
#	109439
#	116993
#
# Disc length: 1876 seconds
#
# Revision: 0
# Processed by: cddbd v1.5.2PL0 Copyright (c) Steve Scherf et al.
# Submitted via: CDex 1.51
#
DISCID=43075205
DTITLE=Thorsten Weiss - Das Zauberland
DYEAR=1900
DGENRE=Kinder-Meditation
TTITLE0=Der goldene Drache
TTITLE1=Die Stimme des Zauberers
TTITLE2=Die Kristallhöhle
TTITLE3=Zauberei
TTITLE4=Thorsten Weiss - Du bis ein Zauberer
EXTD=
EXTT0=
EXTT1=
EXTT2=
EXTT3=
EXTT4=
PLAYORDER=
